<?xml version="1.0" encoding="utf-8" standalone="no"?>
<!DOCTYPE svg PUBLIC "-//W3C//DTD SVG 1.1//EN"
  "http://www.w3.org/Graphics/SVG/1.1/DTD/svg11.dtd">
<svg xmlns:xlink="http://www.w3.org/1999/xlink" width="572.4pt" height="268.768369pt" viewBox="0 0 572.4 268.768369" xmlns="http://www.w3.org/2000/svg" version="1.1">
 <metadata>
  <rdf:RDF xmlns:dc="http://purl.org/dc/elements/1.1/" xmlns:cc="http://creativecommons.org/ns#" xmlns:rdf="http://www.w3.org/1999/02/22-rdf-syntax-ns#">
   <cc:Work>
    <dc:type rdf:resource="http://purl.org/dc/dcmitype/StillImage"/>
    <dc:date>2026-06-18T17:53:00.044160</dc:date>
    <dc:format>image/svg+xml</dc:format>
    <dc:creator>
     <cc:Agent>
      <dc:title>Matplotlib v3.11.0, https://matplotlib.org/</dc:title>
     </cc:Agent>
    </dc:creator>
   </cc:Work>
  </rdf:RDF>
 </metadata>
 <defs>
  <style type="text/css">*{stroke-linejoin: round; stroke-linecap: butt}</style>
 </defs>
 <g id="figure_1">
  <g id="patch_1">
   <path d="M 0 268.768369 
L 572.4 268.768369 
L 572.4 0 
L 0 0 
z
" style="fill: #ffffff"/>
  </g>
  <g id="axes_1">
   <g id="patch_2">
    <path d="M 7.2 156.786769 
L 96.48 156.786769 
Q 107.64 156.786769 107.64 151.797169 
L 107.64 121.859569 
Q 107.64 116.869969 96.48 116.869969 
L 7.2 116.869969 
Q -3.96 116.869969 -3.96 121.859569 
Q -3.96 156.786769 7.2 156.786769 
L 7.2 156.786769 
" clip-path="url(#p33310cb1d1)" style="fill: none; stroke: #000000; stroke-width: 1.3; stroke-linejoin: miter"/>
   </g>
   <g id="patch_3">
    <path d="M 118.8 156.786769 
L 208.08 156.786769 
Q 219.24 156.786769 219.24 151.797169 
L 219.24 121.859569 
Q 219.24 116.869969 208.08 116.869969 
L 118.8 116.869969 
Q 107.64 116.869969 107.64 121.859569 
L 107.64 151.797169 
Q 107.64 156.786769 118.8 156.786769 
L 118.8 156.786769 
z
" clip-path="url(#p33310cb1d1)" style="fill: none; stroke: #000000; stroke-width: 1.3; stroke-linejoin: miter"/>
   </g>
   <g id="patch_4">
    <path d="M 252.72 86.932369 
L 342 86.932369 
Q 353.16 86.932369 353.16 81.942769 
L 353.16 52.005169 
Q 353.16 47.015569 342 47.015569 
L 252.72 47.015569 
Q 241.56 47.015569 241.56 52.005169 
L 241.56 81.942769 
Q 241.56 86.932369 252.72 86.932369 
L 252.72 86.932369 
z
" clip-path="url(#p33310cb1d1)" style="fill: none; stroke: #000000; stroke-width: 1.3; stroke-linejoin: miter"/>
   </g>
   <g id="patch_5">
    <path d="M 252.72 156.786769 
L 342 156.786769 
Q 353.16 156.786769 353.16 151.797169 
L 353.16 121.859569 
Q 353.16 116.869969 342 116.869969 
L 252.72 116.869969 
Q 241.56 116.869969 241.56 121.859569 
L 241.56 151.797169 
Q 241.56 156.786769 252.72 156.786769 
L 252.72 156.786769 
z
" clip-path="url(#p33310cb1d1)" style="fill: none; stroke: #000000; stroke-width: 1.3; stroke-linejoin: miter"/>
   </g>
   <g id="patch_6">
    <path d="M 252.72 226.641169 
L 342 226.641169 
Q 353.16 226.641169 353.16 221.651569 
L 353.16 191.713969 
Q 353.16 186.724369 342 186.724369 
L 252.72 186.724369 
Q 241.56 186.724369 241.56 191.713969 
L 241.56 221.651569 
Q 241.56 226.641169 252.72 226.641169 
L 252.72 226.641169 
z
" clip-path="url(#p33310cb1d1)" style="fill: none; stroke: #000000; stroke-width: 1.3; stroke-linejoin: miter"/>
   </g>
   <g id="patch_7">
    <path d="M 420.12 86.932369 
L 509.4 86.932369 
Q 520.56 86.932369 520.56 81.942769 
L 520.56 52.005169 
Q 520.56 47.015569 509.4 47.015569 
L 420.12 47.015569 
Q 408.96 47.015569 408.96 52.005169 
L 408.96 81.942769 
Q 408.96 86.932369 420.12 86.932369 
L 420.12 86.932369 
z
" clip-path="url(#p33310cb1d1)" style="fill: none; stroke: #000000; stroke-width: 1.3; stroke-linejoin: miter"/>
   </g>
   <g id="patch_8">
    <path d="M 420.12 169.260769 
L 509.4 169.260769 
Q 520.56 169.260769 520.56 164.271169 
L 520.56 134.333569 
Q 520.56 129.343969 509.4 129.343969 
L 420.12 129.343969 
Q 408.96 129.343969 408.96 134.333569 
L 408.96 164.271169 
Q 408.96 169.260769 420.12 169.260769 
L 420.12 169.260769 
z
" clip-path="url(#p33310cb1d1)" style="fill: none; stroke: #000000; stroke-width: 1.3; stroke-linejoin: miter"/>
   </g>
   <g id="patch_9">
    <path d="M 420.12 251.589169 
L 509.4 251.589169 
Q 520.56 251.589169 520.56 246.599569 
L 520.56 216.661969 
Q 520.56 211.672369 509.4 211.672369 
L 420.12 211.672369 
Q 408.96 211.672369 408.96 216.661969 
L 408.96 246.599569 
Q 408.96 251.589169 420.12 251.589169 
L 420.12 251.589169 
z
" clip-path="url(#p33310cb1d1)" style="fill: none; stroke: #000000; stroke-width: 1.3; stroke-linejoin: miter"/>
   </g>
   <g id="patch_10">
    <path d="M 53.839182 136.828369 
Q 107.641183 136.828369 160.101543 136.828369 
" clip-path="url(#p33310cb1d1)" style="fill: none; stroke: #000000; stroke-width: 1.2; stroke-linecap: round"/>
    <path d="M 155.301543 134.428369 
L 160.101543 136.828369 
L 155.301543 139.228369 
" clip-path="url(#p33310cb1d1)" style="fill: none; stroke: #000000; stroke-width: 1.2; stroke-linecap: round"/>
   </g>
   <g id="patch_11">
    <path d="M 165.407536 136.44418 
Q 240.618064 121.483766 294.956146 69.29255 
" clip-path="url(#p33310cb1d1)" style="fill: none; stroke: #000000; stroke-width: 1.2; stroke-linecap: round"/>
    <path d="M 289.831817 70.886681 
L 294.956146 69.29255 
L 293.156854 74.348492 
" clip-path="url(#p33310cb1d1)" style="fill: none; stroke: #000000; stroke-width: 1.2; stroke-linecap: round"/>
   </g>
   <g id="patch_12">
    <path d="M 165.438501 136.828369 
Q 230.398808 136.828369 294.017475 136.828369 
" clip-path="url(#p33310cb1d1)" style="fill: none; stroke: #000000; stroke-width: 1.2; stroke-linecap: round"/>
    <path d="M 289.217475 134.428369 
L 294.017475 136.828369 
L 289.217475 139.228369 
" clip-path="url(#p33310cb1d1)" style="fill: none; stroke: #000000; stroke-width: 1.2; stroke-linecap: round"/>
   </g>
   <g id="patch_13">
    <path d="M 165.407536 137.212557 
Q 240.618064 152.172971 294.956146 204.364187 
" clip-path="url(#p33310cb1d1)" style="fill: none; stroke: #000000; stroke-width: 1.2; stroke-linecap: round"/>
    <path d="M 293.156854 199.308245 
L 294.956146 204.364187 
L 289.831817 202.770056 
" clip-path="url(#p33310cb1d1)" style="fill: none; stroke: #000000; stroke-width: 1.2; stroke-linecap: round"/>
   </g>
   <g id="patch_14">
    <path d="M 299.360034 66.973969 
Q 381.059329 66.973969 461.416983 66.973969 
" clip-path="url(#p33310cb1d1)" style="fill: none; stroke: #000000; stroke-width: 1.2; stroke-linecap: round"/>
    <path d="M 456.616983 64.573969 
L 461.416983 66.973969 
L 456.616983 69.373969 
" clip-path="url(#p33310cb1d1)" style="fill: none; stroke: #000000; stroke-width: 1.2; stroke-linecap: round"/>
   </g>
   <g id="patch_15">
    <path d="M 299.320522 136.430934 
Q 387.895596 118.282953 461.982021 68.833174 
" clip-path="url(#p33310cb1d1)" style="fill: none; stroke: #000000; stroke-width: 1.2; stroke-linecap: round"/>
    <path d="M 456.657266 69.50174 
L 461.982021 68.833174 
L 459.322021 73.494118 
" clip-path="url(#p33310cb1d1)" style="fill: none; stroke: #000000; stroke-width: 1.2; stroke-linecap: round"/>
   </g>
   <g id="patch_16">
    <path d="M 298.46808 205.014467 
Q 360.470518 112.15502 461.692888 68.297601 
" clip-path="url(#p33310cb1d1)" style="fill: none; stroke: #000000; stroke-width: 1.2; stroke-linecap: round"/>
    <path d="M 456.334377 68.003733 
L 461.692888 68.297601 
L 458.242687 72.408089 
" clip-path="url(#p33310cb1d1)" style="fill: none; stroke: #000000; stroke-width: 1.2; stroke-linecap: round"/>
   </g>
   <g id="patch_17">
    <path d="M 299.330094 137.172379 
Q 380.450065 151.239104 461.417669 149.381407 
" clip-path="url(#p33310cb1d1)" style="fill: none; stroke: #000000; stroke-width: 1.2; stroke-linecap: round"/>
    <path d="M 456.563881 147.09214 
L 461.417669 149.381407 
L 456.673982 151.890877 
" clip-path="url(#p33310cb1d1)" style="fill: none; stroke: #000000; stroke-width: 1.2; stroke-linecap: round"/>
   </g>
   <g id="patch_18">
    <path d="M 299.178732 205.851348 
Q 378.255249 169.808492 461.509206 150.070775 
" clip-path="url(#p33310cb1d1)" style="fill: none; stroke: #000000; stroke-width: 1.2; stroke-linecap: round"/>
    <path d="M 456.285026 148.84279 
L 461.509206 150.070775 
L 457.39231 153.513328 
" clip-path="url(#p33310cb1d1)" style="fill: none; stroke: #000000; stroke-width: 1.2; stroke-linecap: round"/>
   </g>
   <g id="patch_19">
    <path d="M 53.781277 136.360954 
Q 281.798561 81.867652 462.174208 229.509839 
" clip-path="url(#p33310cb1d1)" style="fill: none; stroke: #000000; stroke-width: 1.2; stroke-linecap: round"/>
    <path d="M 459.979994 224.612347 
L 462.174208 229.509839 
L 456.939687 228.326715 
" clip-path="url(#p33310cb1d1)" style="fill: none; stroke: #000000; stroke-width: 1.2; stroke-linecap: round"/>
   </g>
   <g id="text_1">
    <!-- Information -->
    <g transform="translate(22.897031 133.425048) scale(0.1 -0.1)">
     <defs>
      <path id="DejaVuSans-2c" d="M 628 4666 
L 1259 4666 
L 1259 0 
L 628 0 
L 628 4666 
z
" transform="scale(0.015625)"/>
      <path id="DejaVuSans-51" d="M 3513 2113 
L 3513 0 
L 2938 0 
L 2938 2094 
Q 2938 2591 2744 2837 
Q 2550 3084 2163 3084 
Q 1697 3084 1428 2787 
Q 1159 2491 1159 1978 
L 1159 0 
L 581 0 
L 581 3500 
L 1159 3500 
L 1159 2956 
Q 1366 3272 1645 3428 
Q 1925 3584 2291 3584 
Q 2894 3584 3203 3211 
Q 3513 2838 3513 2113 
z
" transform="scale(0.015625)"/>
      <path id="DejaVuSans-49" d="M 2375 4863 
L 2375 4384 
L 1825 4384 
Q 1516 4384 1395 4259 
Q 1275 4134 1275 3809 
L 1275 3500 
L 2222 3500 
L 2222 3053 
L 1275 3053 
L 1275 0 
L 697 0 
L 697 3053 
L 147 3053 
L 147 3500 
L 697 3500 
L 697 3744 
Q 697 4328 969 4595 
Q 1241 4863 1831 4863 
L 2375 4863 
z
" transform="scale(0.015625)"/>
      <path id="DejaVuSans-52" d="M 1959 3097 
Q 1497 3097 1228 2736 
Q 959 2375 959 1747 
Q 959 1119 1226 758 
Q 1494 397 1959 397 
Q 2419 397 2687 759 
Q 2956 1122 2956 1747 
Q 2956 2369 2687 2733 
Q 2419 3097 1959 3097 
z
M 1959 3584 
Q 2709 3584 3137 3096 
Q 3566 2609 3566 1747 
Q 3566 888 3137 398 
Q 2709 -91 1959 -91 
Q 1206 -91 779 398 
Q 353 888 353 1747 
Q 353 2609 779 3096 
Q 1206 3584 1959 3584 
z
" transform="scale(0.015625)"/>
      <path id="DejaVuSans-55" d="M 2631 2963 
Q 2534 3019 2420 3045 
Q 2306 3072 2169 3072 
Q 1681 3072 1420 2755 
Q 1159 2438 1159 1844 
L 1159 0 
L 581 0 
L 581 3500 
L 1159 3500 
L 1159 2956 
Q 1341 3275 1631 3429 
Q 1922 3584 2338 3584 
Q 2397 3584 2469 3576 
Q 2541 3569 2628 3553 
L 2631 2963 
z
" transform="scale(0.015625)"/>
      <path id="DejaVuSans-50" d="M 3328 2828 
Q 3544 3216 3844 3400 
Q 4144 3584 4550 3584 
Q 5097 3584 5394 3201 
Q 5691 2819 5691 2113 
L 5691 0 
L 5113 0 
L 5113 2094 
Q 5113 2597 4934 2840 
Q 4756 3084 4391 3084 
Q 3944 3084 3684 2787 
Q 3425 2491 3425 1978 
L 3425 0 
L 2847 0 
L 2847 2094 
Q 2847 2600 2669 2842 
Q 2491 3084 2119 3084 
Q 1678 3084 1418 2786 
Q 1159 2488 1159 1978 
L 1159 0 
L 581 0 
L 581 3500 
L 1159 3500 
L 1159 2956 
Q 1356 3278 1631 3431 
Q 1906 3584 2284 3584 
Q 2666 3584 2933 3390 
Q 3200 3197 3328 2828 
z
" transform="scale(0.015625)"/>
      <path id="DejaVuSans-44" d="M 2194 1759 
Q 1497 1759 1228 1600 
Q 959 1441 959 1056 
Q 959 750 1161 570 
Q 1363 391 1709 391 
Q 2188 391 2477 730 
Q 2766 1069 2766 1631 
L 2766 1759 
L 2194 1759 
z
M 3341 1997 
L 3341 0 
L 2766 0 
L 2766 531 
Q 2569 213 2275 61 
Q 1981 -91 1556 -91 
Q 1019 -91 701 211 
Q 384 513 384 1019 
Q 384 1609 779 1909 
Q 1175 2209 1959 2209 
L 2766 2209 
L 2766 2266 
Q 2766 2663 2505 2880 
Q 2244 3097 1772 3097 
Q 1472 3097 1187 3025 
Q 903 2953 641 2809 
L 641 3341 
Q 956 3463 1253 3523 
Q 1550 3584 1831 3584 
Q 2591 3584 2966 3190 
Q 3341 2797 3341 1997 
z
" transform="scale(0.015625)"/>
      <path id="DejaVuSans-57" d="M 1172 4494 
L 1172 3500 
L 2356 3500 
L 2356 3053 
L 1172 3053 
L 1172 1153 
Q 1172 725 1289 603 
Q 1406 481 1766 481 
L 2356 481 
L 2356 0 
L 1766 0 
Q 1100 0 847 248 
Q 594 497 594 1153 
L 594 3053 
L 172 3053 
L 172 3500 
L 594 3500 
L 594 4494 
L 1172 4494 
z
" transform="scale(0.015625)"/>
      <path id="DejaVuSans-4c" d="M 603 3500 
L 1178 3500 
L 1178 0 
L 603 0 
L 603 3500 
z
M 603 4863 
L 1178 4863 
L 1178 4134 
L 603 4134 
L 603 4863 
z
" transform="scale(0.015625)"/>
     </defs>
     <use xlink:href="#DejaVuSans-2c"/>
     <use xlink:href="#DejaVuSans-51" transform="translate(29.5 0)"/>
     <use xlink:href="#DejaVuSans-49" transform="translate(92.875 0)"/>
     <use xlink:href="#DejaVuSans-52" transform="translate(128.078125 0)"/>
     <use xlink:href="#DejaVuSans-55" transform="translate(189.265625 0)"/>
     <use xlink:href="#DejaVuSans-50" transform="translate(228.625 0)"/>
     <use xlink:href="#DejaVuSans-44" transform="translate(326.03125 0)"/>
     <use xlink:href="#DejaVuSans-57" transform="translate(387.3125 0)"/>
     <use xlink:href="#DejaVuSans-4c" transform="translate(426.515625 0)"/>
     <use xlink:href="#DejaVuSans-52" transform="translate(454.296875 0)"/>
     <use xlink:href="#DejaVuSans-51" transform="translate(515.484375 0)"/>
    </g>
    <!-- point -->
    <g transform="translate(39.088437 145.427783) scale(0.1 -0.1)">
     <defs>
      <path id="DejaVuSans-53" d="M 1159 525 
L 1159 -1331 
L 581 -1331 
L 581 3500 
L 1159 3500 
L 1159 2969 
Q 1341 3281 1617 3432 
Q 1894 3584 2278 3584 
Q 2916 3584 3314 3078 
Q 3713 2572 3713 1747 
Q 3713 922 3314 415 
Q 2916 -91 2278 -91 
Q 1894 -91 1617 61 
Q 1341 213 1159 525 
z
M 3116 1747 
Q 3116 2381 2855 2742 
Q 2594 3103 2138 3103 
Q 1681 3103 1420 2742 
Q 1159 2381 1159 1747 
Q 1159 1113 1420 752 
Q 1681 391 2138 391 
Q 2594 391 2855 752 
Q 3116 1113 3116 1747 
z
" transform="scale(0.015625)"/>
     </defs>
     <use xlink:href="#DejaVuSans-53"/>
     <use xlink:href="#DejaVuSans-52" transform="translate(63.484375 0)"/>
     <use xlink:href="#DejaVuSans-4c" transform="translate(124.671875 0)"/>
     <use xlink:href="#DejaVuSans-51" transform="translate(152.453125 0)"/>
     <use xlink:href="#DejaVuSans-57" transform="translate(215.828125 0)"/>
    </g>
   </g>
   <g id="text_2">
    <!-- Knot -->
    <g transform="translate(151.972813 133.424658) scale(0.1 -0.1)">
     <defs>
      <path id="DejaVuSans-2e" d="M 628 4666 
L 1259 4666 
L 1259 2694 
L 3353 4666 
L 4166 4666 
L 1850 2491 
L 4331 0 
L 3500 0 
L 1259 2247 
L 1259 0 
L 628 0 
L 628 4666 
z
" transform="scale(0.015625)"/>
     </defs>
     <use xlink:href="#DejaVuSans-2e"/>
     <use xlink:href="#DejaVuSans-51" transform="translate(65.578125 0)"/>
     <use xlink:href="#DejaVuSans-52" transform="translate(128.953125 0)"/>
     <use xlink:href="#DejaVuSans-57" transform="translate(190.140625 0)"/>
    </g>
    <!-- coherence K -->
    <g transform="translate(132.501719 145.427392) scale(0.1 -0.1)">
     <defs>
      <path id="DejaVuSans-46" d="M 3122 3366 
L 3122 2828 
Q 2878 2963 2633 3030 
Q 2388 3097 2138 3097 
Q 1578 3097 1268 2742 
Q 959 2388 959 1747 
Q 959 1106 1268 751 
Q 1578 397 2138 397 
Q 2388 397 2633 464 
Q 2878 531 3122 666 
L 3122 134 
Q 2881 22 2623 -34 
Q 2366 -91 2075 -91 
Q 1284 -91 818 406 
Q 353 903 353 1747 
Q 353 2603 823 3093 
Q 1294 3584 2113 3584 
Q 2378 3584 2631 3529 
Q 2884 3475 3122 3366 
z
" transform="scale(0.015625)"/>
      <path id="DejaVuSans-4b" d="M 3513 2113 
L 3513 0 
L 2938 0 
L 2938 2094 
Q 2938 2591 2744 2837 
Q 2550 3084 2163 3084 
Q 1697 3084 1428 2787 
Q 1159 2491 1159 1978 
L 1159 0 
L 581 0 
L 581 4863 
L 1159 4863 
L 1159 2956 
Q 1366 3272 1645 3428 
Q 1925 3584 2291 3584 
Q 2894 3584 3203 3211 
Q 3513 2838 3513 2113 
z
" transform="scale(0.015625)"/>
      <path id="DejaVuSans-48" d="M 3597 1894 
L 3597 1613 
L 953 1613 
Q 991 1019 1311 708 
Q 1631 397 2203 397 
Q 2534 397 2845 478 
Q 3156 559 3463 722 
L 3463 178 
Q 3153 47 2828 -22 
Q 2503 -91 2169 -91 
Q 1331 -91 842 396 
Q 353 884 353 1716 
Q 353 2575 817 3079 
Q 1281 3584 2069 3584 
Q 2775 3584 3186 3129 
Q 3597 2675 3597 1894 
z
M 3022 2063 
Q 3016 2534 2758 2815 
Q 2500 3097 2075 3097 
Q 1594 3097 1305 2825 
Q 1016 2553 972 2059 
L 3022 2063 
z
" transform="scale(0.015625)"/>
      <path id="DejaVuSans-3" transform="scale(0.015625)"/>
     </defs>
     <use xlink:href="#DejaVuSans-46"/>
     <use xlink:href="#DejaVuSans-52" transform="translate(54.984375 0)"/>
     <use xlink:href="#DejaVuSans-4b" transform="translate(116.171875 0)"/>
     <use xlink:href="#DejaVuSans-48" transform="translate(179.546875 0)"/>
     <use xlink:href="#DejaVuSans-55" transform="translate(241.078125 0)"/>
     <use xlink:href="#DejaVuSans-48" transform="translate(279.984375 0)"/>
     <use xlink:href="#DejaVuSans-51" transform="translate(341.515625 0)"/>
     <use xlink:href="#DejaVuSans-46" transform="translate(404.890625 0)"/>
     <use xlink:href="#DejaVuSans-48" transform="translate(459.875 0)"/>
     <use xlink:href="#DejaVuSans-3" transform="translate(521.40625 0)"/>
     <use xlink:href="#DejaVuSans-2e" transform="translate(553.1875 0)"/>
    </g>
   </g>
   <g id="text_3">
    <!-- Visibility -->
    <g transform="translate(276.406094 63.571039) scale(0.1 -0.1)">
     <defs>
      <path id="DejaVuSans-39" d="M 1831 0 
L 50 4666 
L 709 4666 
L 2188 738 
L 3669 4666 
L 4325 4666 
L 2547 0 
L 1831 0 
z
" transform="scale(0.015625)"/>
      <path id="DejaVuSans-56" d="M 2834 3397 
L 2834 2853 
Q 2591 2978 2328 3040 
Q 2066 3103 1784 3103 
Q 1356 3103 1142 2972 
Q 928 2841 928 2578 
Q 928 2378 1081 2264 
Q 1234 2150 1697 2047 
L 1894 2003 
Q 2506 1872 2764 1633 
Q 3022 1394 3022 966 
Q 3022 478 2636 193 
Q 2250 -91 1575 -91 
Q 1294 -91 989 -36 
Q 684 19 347 128 
L 347 722 
Q 666 556 975 473 
Q 1284 391 1588 391 
Q 1994 391 2212 530 
Q 2431 669 2431 922 
Q 2431 1156 2273 1281 
Q 2116 1406 1581 1522 
L 1381 1569 
Q 847 1681 609 1914 
Q 372 2147 372 2553 
Q 372 3047 722 3315 
Q 1072 3584 1716 3584 
Q 2034 3584 2315 3537 
Q 2597 3491 2834 3397 
z
" transform="scale(0.015625)"/>
      <path id="DejaVuSans-45" d="M 3116 1747 
Q 3116 2381 2855 2742 
Q 2594 3103 2138 3103 
Q 1681 3103 1420 2742 
Q 1159 2381 1159 1747 
Q 1159 1113 1420 752 
Q 1681 391 2138 391 
Q 2594 391 2855 752 
Q 3116 1113 3116 1747 
z
M 1159 2969 
Q 1341 3281 1617 3432 
Q 1894 3584 2278 3584 
Q 2916 3584 3314 3078 
Q 3713 2572 3713 1747 
Q 3713 922 3314 415 
Q 2916 -91 2278 -91 
Q 1894 -91 1617 61 
Q 1341 213 1159 525 
L 1159 0 
L 581 0 
L 581 4863 
L 1159 4863 
L 1159 2969 
z
" transform="scale(0.015625)"/>
      <path id="DejaVuSans-4f" d="M 603 4863 
L 1178 4863 
L 1178 0 
L 603 0 
L 603 4863 
z
" transform="scale(0.015625)"/>
      <path id="DejaVuSans-5c" d="M 2059 -325 
Q 1816 -950 1584 -1140 
Q 1353 -1331 966 -1331 
L 506 -1331 
L 506 -850 
L 844 -850 
Q 1081 -850 1212 -737 
Q 1344 -625 1503 -206 
L 1606 56 
L 191 3500 
L 800 3500 
L 1894 763 
L 2988 3500 
L 3597 3500 
L 2059 -325 
z
" transform="scale(0.015625)"/>
     </defs>
     <use xlink:href="#DejaVuSans-39"/>
     <use xlink:href="#DejaVuSans-4c" transform="translate(66.203125 0)"/>
     <use xlink:href="#DejaVuSans-56" transform="translate(93.984375 0)"/>
     <use xlink:href="#DejaVuSans-4c" transform="translate(146.078125 0)"/>
     <use xlink:href="#DejaVuSans-45" transform="translate(173.859375 0)"/>
     <use xlink:href="#DejaVuSans-4c" transform="translate(237.34375 0)"/>
     <use xlink:href="#DejaVuSans-4f" transform="translate(265.125 0)"/>
     <use xlink:href="#DejaVuSans-4c" transform="translate(292.90625 0)"/>
     <use xlink:href="#DejaVuSans-57" transform="translate(320.6875 0)"/>
     <use xlink:href="#DejaVuSans-5c" transform="translate(359.890625 0)"/>
    </g>
    <!-- L*K -->
    <g transform="translate(288.795156 75.572992) scale(0.1 -0.1)">
     <defs>
      <path id="DejaVuSans-2f" d="M 628 4666 
L 1259 4666 
L 1259 531 
L 3531 531 
L 3531 0 
L 628 0 
L 628 4666 
z
" transform="scale(0.015625)"/>
      <path id="DejaVuSans-d" d="M 3009 3897 
L 1888 3291 
L 3009 2681 
L 2828 2375 
L 1778 3009 
L 1778 1831 
L 1422 1831 
L 1422 3009 
L 372 2375 
L 191 2681 
L 1313 3291 
L 191 3897 
L 372 4206 
L 1422 3572 
L 1422 4750 
L 1778 4750 
L 1778 3572 
L 2828 4206 
L 3009 3897 
z
" transform="scale(0.015625)"/>
     </defs>
     <use xlink:href="#DejaVuSans-2f"/>
     <use xlink:href="#DejaVuSans-d" transform="translate(55.71875 0)"/>
     <use xlink:href="#DejaVuSans-2e" transform="translate(105.71875 0)"/>
    </g>
   </g>
   <g id="text_4">
    <!-- Mass -->
    <g transform="translate(284.7725 133.425048) scale(0.1 -0.1)">
     <defs>
      <path id="DejaVuSans-30" d="M 628 4666 
L 1569 4666 
L 2759 1491 
L 3956 4666 
L 4897 4666 
L 4897 0 
L 4281 0 
L 4281 4097 
L 3078 897 
L 2444 897 
L 1241 4097 
L 1241 0 
L 628 0 
L 628 4666 
z
" transform="scale(0.015625)"/>
     </defs>
     <use xlink:href="#DejaVuSans-30"/>
     <use xlink:href="#DejaVuSans-44" transform="translate(86.28125 0)"/>
     <use xlink:href="#DejaVuSans-56" transform="translate(147.5625 0)"/>
     <use xlink:href="#DejaVuSans-56" transform="translate(199.65625 0)"/>
    </g>
    <!-- H*K -->
    <g transform="translate(287.820938 145.427002) scale(0.1 -0.1)">
     <defs>
      <path id="DejaVuSans-2b" d="M 628 4666 
L 1259 4666 
L 1259 2753 
L 3553 2753 
L 3553 4666 
L 4184 4666 
L 4184 0 
L 3553 0 
L 3553 2222 
L 1259 2222 
L 1259 0 
L 628 0 
L 628 4666 
z
" transform="scale(0.015625)"/>
     </defs>
     <use xlink:href="#DejaVuSans-2b"/>
     <use xlink:href="#DejaVuSans-d" transform="translate(75.203125 0)"/>
     <use xlink:href="#DejaVuSans-2e" transform="translate(125.203125 0)"/>
    </g>
   </g>
   <g id="text_5">
    <!-- Gravity -->
    <g transform="translate(279.098281 203.279839) scale(0.1 -0.1)">
     <defs>
      <path id="DejaVuSans-2a" d="M 3809 666 
L 3809 1919 
L 2778 1919 
L 2778 2438 
L 4434 2438 
L 4434 434 
Q 4069 175 3628 42 
Q 3188 -91 2688 -91 
Q 1594 -91 976 548 
Q 359 1188 359 2328 
Q 359 3472 976 4111 
Q 1594 4750 2688 4750 
Q 3144 4750 3555 4637 
Q 3966 4525 4313 4306 
L 4313 3634 
Q 3963 3931 3569 4081 
Q 3175 4231 2741 4231 
Q 1884 4231 1454 3753 
Q 1025 3275 1025 2328 
Q 1025 1384 1454 906 
Q 1884 428 2741 428 
Q 3075 428 3337 486 
Q 3600 544 3809 666 
z
" transform="scale(0.015625)"/>
      <path id="DejaVuSans-59" d="M 191 3500 
L 800 3500 
L 1894 563 
L 2988 3500 
L 3597 3500 
L 2284 0 
L 1503 0 
L 191 3500 
z
" transform="scale(0.015625)"/>
     </defs>
     <use xlink:href="#DejaVuSans-2a"/>
     <use xlink:href="#DejaVuSans-55" transform="translate(77.484375 0)"/>
     <use xlink:href="#DejaVuSans-44" transform="translate(118.59375 0)"/>
     <use xlink:href="#DejaVuSans-59" transform="translate(179.875 0)"/>
     <use xlink:href="#DejaVuSans-4c" transform="translate(239.0625 0)"/>
     <use xlink:href="#DejaVuSans-57" transform="translate(266.84375 0)"/>
     <use xlink:href="#DejaVuSans-5c" transform="translate(306.046875 0)"/>
    </g>
    <!-- G*H*K -->
    <g transform="translate(281.446719 215.281792) scale(0.1 -0.1)">
     <use xlink:href="#DejaVuSans-2a"/>
     <use xlink:href="#DejaVuSans-d" transform="translate(77.484375 0)"/>
     <use xlink:href="#DejaVuSans-2b" transform="translate(127.484375 0)"/>
     <use xlink:href="#DejaVuSans-d" transform="translate(202.6875 0)"/>
     <use xlink:href="#DejaVuSans-2e" transform="translate(252.6875 0)"/>
    </g>
   </g>
   <g id="text_6">
    <!-- Visible -->
    <g transform="translate(448.427187 63.570648) scale(0.1 -0.1)">
     <use xlink:href="#DejaVuSans-39"/>
     <use xlink:href="#DejaVuSans-4c" transform="translate(66.203125 0)"/>
     <use xlink:href="#DejaVuSans-56" transform="translate(93.984375 0)"/>
     <use xlink:href="#DejaVuSans-4c" transform="translate(146.078125 0)"/>
     <use xlink:href="#DejaVuSans-45" transform="translate(173.859375 0)"/>
     <use xlink:href="#DejaVuSans-4f" transform="translate(237.34375 0)"/>
     <use xlink:href="#DejaVuSans-48" transform="translate(265.125 0)"/>
    </g>
    <!-- manifest -->
    <g transform="translate(442.86625 75.573383) scale(0.1 -0.1)">
     <use xlink:href="#DejaVuSans-50"/>
     <use xlink:href="#DejaVuSans-44" transform="translate(97.40625 0)"/>
     <use xlink:href="#DejaVuSans-51" transform="translate(158.6875 0)"/>
     <use xlink:href="#DejaVuSans-4c" transform="translate(222.0625 0)"/>
     <use xlink:href="#DejaVuSans-49" transform="translate(249.84375 0)"/>
     <use xlink:href="#DejaVuSans-48" transform="translate(285.046875 0)"/>
     <use xlink:href="#DejaVuSans-56" transform="translate(346.578125 0)"/>
     <use xlink:href="#DejaVuSans-57" transform="translate(398.671875 0)"/>
    </g>
   </g>
   <g id="text_7">
    <!-- Dark -->
    <g transform="translate(452.895156 145.899048) scale(0.1 -0.1)">
     <defs>
      <path id="DejaVuSans-27" d="M 1259 4147 
L 1259 519 
L 2022 519 
Q 2988 519 3436 956 
Q 3884 1394 3884 2338 
Q 3884 3275 3436 3711 
Q 2988 4147 2022 4147 
L 1259 4147 
z
M 628 4666 
L 1925 4666 
Q 3281 4666 3915 4102 
Q 4550 3538 4550 2338 
Q 4550 1131 3912 565 
Q 3275 0 1925 0 
L 628 0 
L 628 4666 
z
" transform="scale(0.015625)"/>
      <path id="DejaVuSans-4e" d="M 581 4863 
L 1159 4863 
L 1159 1991 
L 2875 3500 
L 3609 3500 
L 1753 1863 
L 3688 0 
L 2938 0 
L 1159 1709 
L 1159 0 
L 581 0 
L 581 4863 
z
" transform="scale(0.015625)"/>
     </defs>
     <use xlink:href="#DejaVuSans-27"/>
     <use xlink:href="#DejaVuSans-44" transform="translate(77 0)"/>
     <use xlink:href="#DejaVuSans-55" transform="translate(138.28125 0)"/>
     <use xlink:href="#DejaVuSans-4e" transform="translate(179.390625 0)"/>
    </g>
    <!-- manifest -->
    <g transform="translate(442.86625 157.901783) scale(0.1 -0.1)">
     <use xlink:href="#DejaVuSans-50"/>
     <use xlink:href="#DejaVuSans-44" transform="translate(97.40625 0)"/>
     <use xlink:href="#DejaVuSans-51" transform="translate(158.6875 0)"/>
     <use xlink:href="#DejaVuSans-4c" transform="translate(222.0625 0)"/>
     <use xlink:href="#DejaVuSans-49" transform="translate(249.84375 0)"/>
     <use xlink:href="#DejaVuSans-48" transform="translate(285.046875 0)"/>
     <use xlink:href="#DejaVuSans-56" transform="translate(346.578125 0)"/>
     <use xlink:href="#DejaVuSans-57" transform="translate(398.671875 0)"/>
    </g>
   </g>
   <g id="text_8">
    <!-- Unmanifest -->
    <g transform="translate(436.038125 234.228816) scale(0.1 -0.1)">
     <defs>
      <path id="DejaVuSans-38" d="M 556 4666 
L 1191 4666 
L 1191 1831 
Q 1191 1081 1462 751 
Q 1734 422 2344 422 
Q 2950 422 3222 751 
Q 3494 1081 3494 1831 
L 3494 4666 
L 4128 4666 
L 4128 1753 
Q 4128 841 3676 375 
Q 3225 -91 2344 -91 
Q 1459 -91 1007 375 
Q 556 841 556 1753 
L 556 4666 
z
" transform="scale(0.015625)"/>
     </defs>
     <use xlink:href="#DejaVuSans-38"/>
     <use xlink:href="#DejaVuSans-51" transform="translate(73.1875 0)"/>
     <use xlink:href="#DejaVuSans-50" transform="translate(136.5625 0)"/>
     <use xlink:href="#DejaVuSans-44" transform="translate(233.96875 0)"/>
     <use xlink:href="#DejaVuSans-51" transform="translate(295.25 0)"/>
     <use xlink:href="#DejaVuSans-4c" transform="translate(358.625 0)"/>
     <use xlink:href="#DejaVuSans-49" transform="translate(386.40625 0)"/>
     <use xlink:href="#DejaVuSans-48" transform="translate(421.609375 0)"/>
     <use xlink:href="#DejaVuSans-56" transform="translate(483.140625 0)"/>
     <use xlink:href="#DejaVuSans-57" transform="translate(535.234375 0)"/>
    </g>
   </g>
   <g id="text_9">
    <!-- Activation mechanic: light controls visibility, not existence -->
    <g transform="translate(70.821484 17.077969) scale(0.13 -0.13)">
     <defs>
      <path id="DejaVuSans-Bold-24" d="M 3419 850 
L 1538 850 
L 1241 0 
L 31 0 
L 1759 4666 
L 3194 4666 
L 4922 0 
L 3713 0 
L 3419 850 
z
M 1838 1716 
L 3116 1716 
L 2478 3572 
L 1838 1716 
z
" transform="scale(0.015625)"/>
      <path id="DejaVuSans-Bold-46" d="M 3366 3391 
L 3366 2478 
Q 3138 2634 2908 2709 
Q 2678 2784 2431 2784 
Q 1963 2784 1702 2511 
Q 1441 2238 1441 1747 
Q 1441 1256 1702 982 
Q 1963 709 2431 709 
Q 2694 709 2930 787 
Q 3166 866 3366 1019 
L 3366 103 
Q 3103 6 2833 -42 
Q 2563 -91 2291 -91 
Q 1344 -91 809 395 
Q 275 881 275 1747 
Q 275 2613 809 3098 
Q 1344 3584 2291 3584 
Q 2566 3584 2833 3536 
Q 3100 3488 3366 3391 
z
" transform="scale(0.015625)"/>
      <path id="DejaVuSans-Bold-57" d="M 1759 4494 
L 1759 3500 
L 2913 3500 
L 2913 2700 
L 1759 2700 
L 1759 1216 
Q 1759 972 1856 886 
Q 1953 800 2241 800 
L 2816 800 
L 2816 0 
L 1856 0 
Q 1194 0 917 276 
Q 641 553 641 1216 
L 641 2700 
L 84 2700 
L 84 3500 
L 641 3500 
L 641 4494 
L 1759 4494 
z
" transform="scale(0.015625)"/>
      <path id="DejaVuSans-Bold-4c" d="M 538 3500 
L 1656 3500 
L 1656 0 
L 538 0 
L 538 3500 
z
M 538 4863 
L 1656 4863 
L 1656 3950 
L 538 3950 
L 538 4863 
z
" transform="scale(0.015625)"/>
      <path id="DejaVuSans-Bold-59" d="M 97 3500 
L 1216 3500 
L 2088 1081 
L 2956 3500 
L 4078 3500 
L 2700 0 
L 1472 0 
L 97 3500 
z
" transform="scale(0.015625)"/>
      <path id="DejaVuSans-Bold-44" d="M 2106 1575 
Q 1756 1575 1579 1456 
Q 1403 1338 1403 1106 
Q 1403 894 1545 773 
Q 1688 653 1941 653 
Q 2256 653 2472 879 
Q 2688 1106 2688 1447 
L 2688 1575 
L 2106 1575 
z
M 3816 1997 
L 3816 0 
L 2688 0 
L 2688 519 
Q 2463 200 2181 54 
Q 1900 -91 1497 -91 
Q 953 -91 614 226 
Q 275 544 275 1050 
Q 275 1666 698 1953 
Q 1122 2241 2028 2241 
L 2688 2241 
L 2688 2328 
Q 2688 2594 2478 2717 
Q 2269 2841 1825 2841 
Q 1466 2841 1156 2769 
Q 847 2697 581 2553 
L 581 3406 
Q 941 3494 1303 3539 
Q 1666 3584 2028 3584 
Q 2975 3584 3395 3211 
Q 3816 2838 3816 1997 
z
" transform="scale(0.015625)"/>
      <path id="DejaVuSans-Bold-52" d="M 2203 2784 
Q 1831 2784 1636 2517 
Q 1441 2250 1441 1747 
Q 1441 1244 1636 976 
Q 1831 709 2203 709 
Q 2569 709 2762 976 
Q 2956 1244 2956 1747 
Q 2956 2250 2762 2517 
Q 2569 2784 2203 2784 
z
M 2203 3584 
Q 3106 3584 3614 3096 
Q 4122 2609 4122 1747 
Q 4122 884 3614 396 
Q 3106 -91 2203 -91 
Q 1297 -91 786 396 
Q 275 884 275 1747 
Q 275 2609 786 3096 
Q 1297 3584 2203 3584 
z
" transform="scale(0.015625)"/>
      <path id="DejaVuSans-Bold-51" d="M 4056 2131 
L 4056 0 
L 2931 0 
L 2931 347 
L 2931 1631 
Q 2931 2084 2911 2256 
Q 2891 2428 2841 2509 
Q 2775 2619 2662 2680 
Q 2550 2741 2406 2741 
Q 2056 2741 1856 2470 
Q 1656 2200 1656 1722 
L 1656 0 
L 538 0 
L 538 3500 
L 1656 3500 
L 1656 2988 
Q 1909 3294 2193 3439 
Q 2478 3584 2822 3584 
Q 3428 3584 3742 3212 
Q 4056 2841 4056 2131 
z
" transform="scale(0.015625)"/>
      <path id="DejaVuSans-Bold-3" transform="scale(0.015625)"/>
      <path id="DejaVuSans-Bold-50" d="M 3781 2919 
Q 3994 3244 4286 3414 
Q 4578 3584 4928 3584 
Q 5531 3584 5847 3212 
Q 6163 2841 6163 2131 
L 6163 0 
L 5038 0 
L 5038 1825 
Q 5041 1866 5042 1909 
Q 5044 1953 5044 2034 
Q 5044 2406 4934 2573 
Q 4825 2741 4581 2741 
Q 4263 2741 4089 2478 
Q 3916 2216 3909 1719 
L 3909 0 
L 2784 0 
L 2784 1825 
Q 2784 2406 2684 2573 
Q 2584 2741 2328 2741 
Q 2006 2741 1831 2477 
Q 1656 2213 1656 1722 
L 1656 0 
L 531 0 
L 531 3500 
L 1656 3500 
L 1656 2988 
Q 1863 3284 2130 3434 
Q 2397 3584 2719 3584 
Q 3081 3584 3359 3409 
Q 3638 3234 3781 2919 
z
" transform="scale(0.015625)"/>
      <path id="DejaVuSans-Bold-48" d="M 4031 1759 
L 4031 1441 
L 1416 1441 
Q 1456 1047 1700 850 
Q 1944 653 2381 653 
Q 2734 653 3104 758 
Q 3475 863 3866 1075 
L 3866 213 
Q 3469 63 3072 -14 
Q 2675 -91 2278 -91 
Q 1328 -91 801 392 
Q 275 875 275 1747 
Q 275 2603 792 3093 
Q 1309 3584 2216 3584 
Q 3041 3584 3536 3087 
Q 4031 2591 4031 1759 
z
M 2881 2131 
Q 2881 2450 2695 2645 
Q 2509 2841 2209 2841 
Q 1884 2841 1681 2658 
Q 1478 2475 1428 2131 
L 2881 2131 
z
" transform="scale(0.015625)"/>
      <path id="DejaVuSans-Bold-4b" d="M 4056 2131 
L 4056 0 
L 2931 0 
L 2931 347 
L 2931 1625 
Q 2931 2084 2911 2256 
Q 2891 2428 2841 2509 
Q 2775 2619 2662 2680 
Q 2550 2741 2406 2741 
Q 2056 2741 1856 2470 
Q 1656 2200 1656 1722 
L 1656 0 
L 538 0 
L 538 4863 
L 1656 4863 
L 1656 2988 
Q 1909 3294 2193 3439 
Q 2478 3584 2822 3584 
Q 3428 3584 3742 3212 
Q 4056 2841 4056 2131 
z
" transform="scale(0.015625)"/>
      <path id="DejaVuSans-Bold-1d" d="M 716 3500 
L 1844 3500 
L 1844 2291 
L 716 2291 
L 716 3500 
z
M 716 1209 
L 1844 1209 
L 1844 0 
L 716 0 
L 716 1209 
z
" transform="scale(0.015625)"/>
      <path id="DejaVuSans-Bold-4f" d="M 538 4863 
L 1656 4863 
L 1656 0 
L 538 0 
L 538 4863 
z
" transform="scale(0.015625)"/>
      <path id="DejaVuSans-Bold-4a" d="M 2919 594 
Q 2688 288 2409 144 
Q 2131 0 1766 0 
Q 1125 0 706 504 
Q 288 1009 288 1791 
Q 288 2575 706 3076 
Q 1125 3578 1766 3578 
Q 2131 3578 2409 3434 
Q 2688 3291 2919 2981 
L 2919 3500 
L 4044 3500 
L 4044 353 
Q 4044 -491 3511 -936 
Q 2978 -1381 1966 -1381 
Q 1638 -1381 1331 -1331 
Q 1025 -1281 716 -1178 
L 716 -306 
Q 1009 -475 1290 -558 
Q 1572 -641 1856 -641 
Q 2406 -641 2662 -400 
Q 2919 -159 2919 353 
L 2919 594 
z
M 2181 2772 
Q 1834 2772 1640 2515 
Q 1447 2259 1447 1791 
Q 1447 1309 1634 1061 
Q 1822 813 2181 813 
Q 2531 813 2725 1069 
Q 2919 1325 2919 1791 
Q 2919 2259 2725 2515 
Q 2531 2772 2181 2772 
z
" transform="scale(0.015625)"/>
      <path id="DejaVuSans-Bold-55" d="M 3138 2547 
Q 2991 2616 2845 2648 
Q 2700 2681 2553 2681 
Q 2122 2681 1889 2404 
Q 1656 2128 1656 1613 
L 1656 0 
L 538 0 
L 538 3500 
L 1656 3500 
L 1656 2925 
Q 1872 3269 2151 3426 
Q 2431 3584 2822 3584 
Q 2878 3584 2943 3579 
Q 3009 3575 3134 3559 
L 3138 2547 
z
" transform="scale(0.015625)"/>
      <path id="DejaVuSans-Bold-56" d="M 3272 3391 
L 3272 2541 
Q 2913 2691 2578 2766 
Q 2244 2841 1947 2841 
Q 1628 2841 1473 2761 
Q 1319 2681 1319 2516 
Q 1319 2381 1436 2309 
Q 1553 2238 1856 2203 
L 2053 2175 
Q 2913 2066 3209 1816 
Q 3506 1566 3506 1031 
Q 3506 472 3093 190 
Q 2681 -91 1863 -91 
Q 1516 -91 1145 -36 
Q 775 19 384 128 
L 384 978 
Q 719 816 1070 734 
Q 1422 653 1784 653 
Q 2113 653 2278 743 
Q 2444 834 2444 1013 
Q 2444 1163 2330 1236 
Q 2216 1309 1875 1350 
L 1678 1375 
Q 931 1469 631 1722 
Q 331 1975 331 2491 
Q 331 3047 712 3315 
Q 1094 3584 1881 3584 
Q 2191 3584 2531 3537 
Q 2872 3491 3272 3391 
z
" transform="scale(0.015625)"/>
      <path id="DejaVuSans-Bold-45" d="M 2400 722 
Q 2759 722 2948 984 
Q 3138 1247 3138 1747 
Q 3138 2247 2948 2509 
Q 2759 2772 2400 2772 
Q 2041 2772 1848 2508 
Q 1656 2244 1656 1747 
Q 1656 1250 1848 986 
Q 2041 722 2400 722 
z
M 1656 2988 
Q 1888 3294 2169 3439 
Q 2450 3584 2816 3584 
Q 3463 3584 3878 3070 
Q 4294 2556 4294 1747 
Q 4294 938 3878 423 
Q 3463 -91 2816 -91 
Q 2450 -91 2169 54 
Q 1888 200 1656 506 
L 1656 0 
L 538 0 
L 538 4863 
L 1656 4863 
L 1656 2988 
z
" transform="scale(0.015625)"/>
      <path id="DejaVuSans-Bold-5c" d="M 78 3500 
L 1197 3500 
L 2138 1125 
L 2938 3500 
L 4056 3500 
L 2584 -331 
Q 2363 -916 2067 -1148 
Q 1772 -1381 1288 -1381 
L 641 -1381 
L 641 -647 
L 991 -647 
Q 1275 -647 1404 -556 
Q 1534 -466 1606 -231 
L 1638 -134 
L 78 3500 
z
" transform="scale(0.015625)"/>
      <path id="DejaVuSans-Bold-f" d="M 653 1209 
L 1778 1209 
L 1778 256 
L 1006 -909 
L 341 -909 
L 653 256 
L 653 1209 
z
" transform="scale(0.015625)"/>
      <path id="DejaVuSans-Bold-5b" d="M 1422 1791 
L 159 3500 
L 1344 3500 
L 2059 2463 
L 2784 3500 
L 3969 3500 
L 2706 1797 
L 4031 0 
L 2847 0 
L 2059 1106 
L 1281 0 
L 97 0 
L 1422 1791 
z
" transform="scale(0.015625)"/>
     </defs>
     <use xlink:href="#DejaVuSans-Bold-24"/>
     <use xlink:href="#DejaVuSans-Bold-46" transform="translate(77.390625 0)"/>
     <use xlink:href="#DejaVuSans-Bold-57" transform="translate(136.671875 0)"/>
     <use xlink:href="#DejaVuSans-Bold-4c" transform="translate(184.46875 0)"/>
     <use xlink:href="#DejaVuSans-Bold-59" transform="translate(218.75 0)"/>
     <use xlink:href="#DejaVuSans-Bold-44" transform="translate(283.9375 0)"/>
     <use xlink:href="#DejaVuSans-Bold-57" transform="translate(351.421875 0)"/>
     <use xlink:href="#DejaVuSans-Bold-4c" transform="translate(399.21875 0)"/>
     <use xlink:href="#DejaVuSans-Bold-52" transform="translate(433.5 0)"/>
     <use xlink:href="#DejaVuSans-Bold-51" transform="translate(502.203125 0)"/>
     <use xlink:href="#DejaVuSans-Bold-3" transform="translate(573.390625 0)"/>
     <use xlink:href="#DejaVuSans-Bold-50" transform="translate(608.203125 0)"/>
     <use xlink:href="#DejaVuSans-Bold-48" transform="translate(712.40625 0)"/>
     <use xlink:href="#DejaVuSans-Bold-46" transform="translate(780.234375 0)"/>
     <use xlink:href="#DejaVuSans-Bold-4b" transform="translate(839.515625 0)"/>
     <use xlink:href="#DejaVuSans-Bold-44" transform="translate(910.703125 0)"/>
     <use xlink:href="#DejaVuSans-Bold-51" transform="translate(978.1875 0)"/>
     <use xlink:href="#DejaVuSans-Bold-4c" transform="translate(1049.375 0)"/>
     <use xlink:href="#DejaVuSans-Bold-46" transform="translate(1083.65625 0)"/>
     <use xlink:href="#DejaVuSans-Bold-1d" transform="translate(1142.9375 0)"/>
     <use xlink:href="#DejaVuSans-Bold-3" transform="translate(1182.921875 0)"/>
     <use xlink:href="#DejaVuSans-Bold-4f" transform="translate(1217.734375 0)"/>
     <use xlink:href="#DejaVuSans-Bold-4c" transform="translate(1252.015625 0)"/>
     <use xlink:href="#DejaVuSans-Bold-4a" transform="translate(1286.296875 0)"/>
     <use xlink:href="#DejaVuSans-Bold-4b" transform="translate(1357.875 0)"/>
     <use xlink:href="#DejaVuSans-Bold-57" transform="translate(1429.0625 0)"/>
     <use xlink:href="#DejaVuSans-Bold-3" transform="translate(1476.859375 0)"/>
     <use xlink:href="#DejaVuSans-Bold-46" transform="translate(1511.671875 0)"/>
     <use xlink:href="#DejaVuSans-Bold-52" transform="translate(1570.953125 0)"/>
     <use xlink:href="#DejaVuSans-Bold-51" transform="translate(1639.65625 0)"/>
     <use xlink:href="#DejaVuSans-Bold-57" transform="translate(1710.84375 0)"/>
     <use xlink:href="#DejaVuSans-Bold-55" transform="translate(1758.640625 0)"/>
     <use xlink:href="#DejaVuSans-Bold-52" transform="translate(1807.953125 0)"/>
     <use xlink:href="#DejaVuSans-Bold-4f" transform="translate(1876.65625 0)"/>
     <use xlink:href="#DejaVuSans-Bold-56" transform="translate(1910.9375 0)"/>
     <use xlink:href="#DejaVuSans-Bold-3" transform="translate(1970.453125 0)"/>
     <use xlink:href="#DejaVuSans-Bold-59" transform="translate(2005.265625 0)"/>
     <use xlink:href="#DejaVuSans-Bold-4c" transform="translate(2070.453125 0)"/>
     <use xlink:href="#DejaVuSans-Bold-56" transform="translate(2104.734375 0)"/>
     <use xlink:href="#DejaVuSans-Bold-4c" transform="translate(2164.25 0)"/>
     <use xlink:href="#DejaVuSans-Bold-45" transform="translate(2198.53125 0)"/>
     <use xlink:href="#DejaVuSans-Bold-4c" transform="translate(2270.109375 0)"/>
     <use xlink:href="#DejaVuSans-Bold-4f" transform="translate(2304.390625 0)"/>
     <use xlink:href="#DejaVuSans-Bold-4c" transform="translate(2338.671875 0)"/>
     <use xlink:href="#DejaVuSans-Bold-57" transform="translate(2372.953125 0)"/>
     <use xlink:href="#DejaVuSans-Bold-5c" transform="translate(2420.75 0)"/>
     <use xlink:href="#DejaVuSans-Bold-f" transform="translate(2478.171875 0)"/>
     <use xlink:href="#DejaVuSans-Bold-3" transform="translate(2516.15625 0)"/>
     <use xlink:href="#DejaVuSans-Bold-51" transform="translate(2550.96875 0)"/>
     <use xlink:href="#DejaVuSans-Bold-52" transform="translate(2622.15625 0)"/>
     <use xlink:href="#DejaVuSans-Bold-57" transform="translate(2690.859375 0)"/>
     <use xlink:href="#DejaVuSans-Bold-3" transform="translate(2738.65625 0)"/>
     <use xlink:href="#DejaVuSans-Bold-48" transform="translate(2773.46875 0)"/>
     <use xlink:href="#DejaVuSans-Bold-5b" transform="translate(2841.296875 0)"/>
     <use xlink:href="#DejaVuSans-Bold-4c" transform="translate(2905.796875 0)"/>
     <use xlink:href="#DejaVuSans-Bold-56" transform="translate(2940.078125 0)"/>
     <use xlink:href="#DejaVuSans-Bold-57" transform="translate(2999.59375 0)"/>
     <use xlink:href="#DejaVuSans-Bold-48" transform="translate(3047.390625 0)"/>
     <use xlink:href="#DejaVuSans-Bold-51" transform="translate(3115.21875 0)"/>
     <use xlink:href="#DejaVuSans-Bold-46" transform="translate(3186.40625 0)"/>
     <use xlink:href="#DejaVuSans-Bold-48" transform="translate(3245.6875 0)"/>
    </g>
   </g>
  </g>
 </g>
 <defs>
  <clipPath id="p33310cb1d1">
   <rect x="7.2" y="12.088369" width="558" height="249.48"/>
  </clipPath>
 </defs>
</svg>
